<svg xmlns="http://www.w3.org/2000/svg" width="512" height="512" viewBox="0 0 512 512">
  <defs>
    <linearGradient id="bg" x1="0" y1="0" x2="0" y2="1">
      <stop offset="0" stop-color="#1c8060"/>
      <stop offset="1" stop-color="#11593c"/>
    </linearGradient>
  </defs>
  <rect width="512" height="512" rx="112" fill="url(#bg)"/>
  <g fill="none" stroke="#ffffff" stroke-linecap="round">
    <!-- 顶部按钮 -->
    <rect x="236" y="86" width="40" height="26" rx="9" fill="#ffffff" stroke="none"/>
    <line x1="256" y1="112" x2="256" y2="140" stroke-width="18"/>
    <!-- 两侧小柄 -->
    <line x1="156" y1="150" x2="178" y2="172" stroke-width="16"/>
    <line x1="356" y1="150" x2="334" y2="172" stroke-width="16"/>
    <!-- 表盘外环 -->
    <circle cx="256" cy="300" r="150" stroke-width="22"/>
    <!-- 剩余扇区高亮（从12点顺时针约270°的弧，表示"还需等待"） -->
    <path d="M 256 165 A 135 135 0 1 1 135 374" stroke-width="20" stroke-opacity="0.55"/>
    <!-- 刻度（12 / 3 / 6 / 9 点） -->
    <line x1="256" y1="172" x2="256" y2="196" stroke-width="14"/>
    <line x1="384" y1="300" x2="360" y2="300" stroke-width="14"/>
    <line x1="256" y1="428" x2="256" y2="404" stroke-width="14"/>
    <line x1="128" y1="300" x2="152" y2="300" stroke-width="14"/>
    <!-- 指针：指向约「2 点」方向 -->
    <line x1="256" y1="300" x2="320" y2="246" stroke-width="20"/>
    <!-- 中心轴 -->
    <circle cx="256" cy="300" r="16" fill="#ffffff" stroke="none"/>
  </g>
</svg>
